{
  "accessors": [
    {
      "bufferView": 2,
      "componentType": 5126,
      "count": 6047,
      "max": [
        0.6416919231414795,
        0.1644328534603119,
        -0.8375943899154663
      ],
      "min": [
        -0.6379060745239258,
        -0.14814415574073792,
        -1.684861421585083
      ],
      "type": "VEC3"
    },
    {
      "bufferView": 2,
      "byteOffset": 72564,
      "componentType": 5126,
      "count": 6047,
      "max": [
        0.9999665021896362,
        0.9999988675117493,
        0.9979677200317383
      ],
      "min": [
        -0.9998604655265808,
        -0.9999614357948303,
        -0.9903160333633423
      ],
      "type": "VEC3"
    },
    {
      "bufferView": 3,
      "componentType": 5126,
      "count": 6047,
      "max": [
        0.9999980330467224,
        0.999860405921936,
        0.999994695186615,
        1.0
      ],
      "min": [
        -0.999999463558197,
        -0.9998594522476196,
        -0.9999988675117493,
        -1.0
      ],
      "type": "VEC4"
    },
    {
      "bufferView": 1,
      "componentType": 5126,
      "count": 6047,
      "max": [
        0.995173990726471,
        0.9962850213050842
      ],
      "min": [
        0.00481100007891655,
        0.004305005073547363
      ],
      "type": "VEC2"
    },
    {
      "bufferView": 1,
      "byteOffset": 48376,
      "componentType": 5126,
      "count": 6047,
      "max": [
        0.995173990726471,
        0.9962850213050842
      ],
      "min": [
        0.00481100007891655,
        0.004305005073547363
      ],
      "type": "VEC2"
    },
    {
      "bufferView": 1,
      "byteOffset": 96752,
      "componentType": 5126,
      "count": 6047,
      "max": [
        0.995173990726471,
        0.9962850213050842
      ],
      "min": [
        0.00481100007891655,
        0.004305005073547363
      ],
      "type": "VEC2"
    },
    {
      "bufferView": 1,
      "byteOffset": 145128,
      "componentType": 5126,
      "count": 6047,
      "max": [
        0.995173990726471,
        0.9962850213050842
      ],
      "min": [
        0.00481100007891655,
        0.004305005073547363
      ],
      "type": "VEC2"
    },
    {
      "bufferView": 0,
      "componentType": 5125,
      "count": 29118,
      "type": "SCALAR"
    }
  ],
  "asset": {
    "extras": {
      "author": "RealityRoller (https://sketchfab.com/RealityRoller)",
      "license": "CC-BY-4.0 (http://creativecommons.org/licenses/by/4.0/)",
      "source": "https://sketchfab.com/3d-models/party-starter-layered-t-shirts-fbfa86ea615e4028b8ad400de902bfd4",
      "title": "Party Starter - Layered T-Shirts"
    },
    "generator": "Sketchfab-12.67.0",
    "version": "2.0"
  },
  "bufferViews": [
    {
      "buffer": 0,
      "byteLength": 116472,
      "name": "floatBufferViews",
      "target": 34963
    },
    {
      "buffer": 0,
      "byteLength": 193504,
      "byteOffset": 116472,
      "byteStride": 8,
      "name": "floatBufferViews",
      "target": 34962
    },
    {
      "buffer": 0,
      "byteLength": 145128,
      "byteOffset": 309976,
      "byteStride": 12,
      "name": "floatBufferViews",
      "target": 34962
    },
    {
      "buffer": 0,
      "byteLength": 96752,
      "byteOffset": 455104,
      "byteStride": 16,
      "name": "floatBufferViews",
      "target": 34962
    }
  ],
  "buffers": [
    {
      "byteLength": 551856,
      "uri": "scene.bin"
    }
  ],
  "extensionsUsed": [
    "KHR_texture_transform"
  ],
  "images": [
    {
      "uri": "textures/PartyStarter_-_LayeredTShirt_-_Checkered_1024_baseColor.png"
    },
    {
      "uri": "textures/PartyStarter_-_LayeredTShirt_-_Checkered_1024_metallicRoughness.png"
    },
    {
      "uri": "textures/PartyStarter_-_LayeredTShirt_-_Checkered_1024_normal.png"
    }
  ],
  "materials": [
    {
      "doubleSided": true,
      "name": "PartyStarter_-_LayeredTShirt_-_Checkered_1024",
      "normalTexture": {
        "extensions": {
          "KHR_texture_transform": {
            "rotation": 3.141592653589793,
            "scale": [
              -0.9999999999999996,
              1
            ]
          }
        },
        "index": 2
      },
      "pbrMetallicRoughness": {
        "baseColorTexture": {
          "extensions": {
            "KHR_texture_transform": {
              "rotation": 3.141592653589793,
              "scale": [
                -0.9999999999999996,
                1
              ]
            }
          },
          "index": 0
        },
        "metallicRoughnessTexture": {
          "extensions": {
            "KHR_texture_transform": {
              "rotation": 3.141592653589793,
              "scale": [
                -0.9999999999999996,
                1
              ]
            }
          },
          "index": 1
        }
      }
    }
  ],
  "meshes": [
    {
      "name": "Object_0",
      "primitives": [
        {
          "attributes": {
            "NORMAL": 1,
            "POSITION": 0,
            "TANGENT": 2,
            "TEXCOORD_0": 3,
            "TEXCOORD_1": 4,
            "TEXCOORD_2": 5,
            "TEXCOORD_3": 6
          },
          "indices": 7,
          "material": 0,
          "mode": 4
        }
      ]
    }
  ],
  "nodes": [
    {
      "children": [
        1
      ],
      "matrix": [
        1.148138403892517,
        0.0,
        0.0,
        0.0,
        0.0,
        2.5493793829157e-16,
        -1.148138403892517,
        0.0,
        0.0,
        1.148138403892517,
        2.5493793829157e-16,
        0.0,
        0.0,
        0.0,
        0.0,
        1.0
      ],
      "name": "Sketchfab_model"
    },
    {
      "children": [
        2
      ],
      "name": "root"
    },
    {
      "children": [
        3
      ],
      "matrix": [
        1.0,
        0.0,
        0.0,
        0.0,
        0.0,
        2.220446049250313e-16,
        1.0,
        0.0,
        0.0,
        -1.0,
        2.220446049250313e-16,
        0.0,
        0.0,
        0.0,
        0.0,
        1.0
      ],
      "name": "GLTF_SceneRootNode"
    },
    {
      "children": [
        4
      ],
      "matrix": [
        1.0,
        0.0,
        0.0,
        0.0,
        0.0,
        -1.685873969314855e-07,
        0.9999999999999858,
        0.0,
        0.0,
        -0.9999999999999858,
        -1.685873969314855e-07,
        0.0,
        0.0,
        0.0,
        0.0,
        1.0
      ],
      "name": "PartyStarter-LayeredTShirts-LowPoly_0"
    },
    {
      "mesh": 0,
      "name": "Object_4"
    }
  ],
  "samplers": [
    {
      "magFilter": 9729,
      "minFilter": 9987,
      "wrapS": 10497,
      "wrapT": 10497
    }
  ],
  "scene": 0,
  "scenes": [
    {
      "name": "Sketchfab_Scene",
      "nodes": [
        0
      ]
    }
  ],
  "textures": [
    {
      "sampler": 0,
      "source": 0
    },
    {
      "sampler": 0,
      "source": 1
    },
    {
      "sampler": 0,
      "source": 2
    }
  ]
}
